<?xml version="1.0" encoding="UTF-8"?>
<!-- Generator: Adobe Illustrator 21.0.0, SVG Export Plug-In . SVG Version: 6.00 Build 0)  -->
<svg version="1.1" id="Calque_1" xmlns="http://www.w3.org/2000/svg" xmlns:xlink="http://www.w3.org/1999/xlink" x="0px" y="0px" width="444.4px" height="449.9px" viewBox="0 0 444.4 449.9" style="enable-background:new 0 0 444.4 449.9;" xml:space="preserve">
<style type="text/css">
	.st0{fill:#023F88;}
	.st1{fill:#EF413D;}
</style>
<path class="st0" d="M444.4,205.4l-1.5-0.2l1.5-0.4l-8.5-34.1h0.3l-27.5-68.5l0.2-0.2l-0.5-0.7l-1-2.5l-0.4,0.6l-34.7-46.3l-1.2,0.9  l0.8-1.3l-47.3-30.3v50.5l-17.9,47.6l-29.1,51.7l48.4-20.6l34.6,18.4v44.1h1.5l-0.9,1.2l34.8,26.1l-35,43.8l0.6,0.5l-0.2,0.1  l-0.3,0.3l0,0l-24.4,25.7v-36.1l-37.5,9.9L233.7,266l9.8,31l8.1,94.2l-24-59L190,361.8l-0.4,0.3l-9.4,29.6l46.1,58.2l90.9-19.1  l0.3-0.1l72.3-57.1l-0.9-1.2l1.3,0.7l27.2-47.7v-19l19.2-40.5l-0.9,0.2L444.4,205.4z M440.7,202.6L369,170.7h63.8L440.7,202.6z   M431.7,167.7h-67l41.9-62.5L431.7,167.7z M402.8,98.9l-72.7-25.8l40.4-17.2L402.8,98.9z M344.8,110l-16-34.1l72,25.6L344.8,110z   M399.5,104.7l-70.2,41.6L345,113L399.5,104.7z M327.4,28l40.3,25.8l-40.3,17.2V28z M326.1,77.1l15.7,33.6l-31.5,8.4L326.1,77.1z   M284.4,166.1l23.6-41.9l15.7,25.2L284.4,166.1z M325.7,146.9l-15.5-24.7l30.9-8.2L325.7,146.9z M361.4,167.3L329,149.9l73-43.3  L361.4,167.3z M363.4,213.5v-37.9l30.3,60.6L363.4,213.5z M365.2,172.3l74.9,33.3l-41.6,33.3L365.2,172.3z M398.2,243.3l32.4,24.3  L365,284.8L398.2,243.3z M362.4,288.9l47,16.5l-70.4,8.2L362.4,288.9z M333.4,279.6v32.9l-31.2-24.6L333.4,279.6z M329,312.8  l-76.1-16l45.7-8L329,312.8z M238.2,270.5l54.2,16.3l-46.5,8.2L238.2,270.5z M332.2,316.5l-59.6,71.7l-25.5-89.6L332.2,316.5z   M307.7,423.5l-50.4-22.7l14.4-7.6L307.7,423.5z M247.8,312.1l22.4,78.5l-14.9,7.9L247.8,312.1z M226.3,336.9l24.5,60.3l-57.3-34.5  L226.3,336.9z M183.6,391.1l7.5-23.8l30.1,71.3L183.6,391.1z M194.1,366.6l57.8,34.8l-24.8,43.5L194.1,366.6z M229.9,446.1  l24.7-43.3l57.6,26L229.9,446.1z M315.9,426.4L274,391.2l58.6-70.4L315.9,426.4z M319,425.7l16.9-106.9l50.8,53.4L319,425.7z   M388.6,369.9l-49.8-52.4l74.6,8.7L388.6,369.9z M414.4,323.4l-66.6-7.8l66.6-7.8V323.4z M415.2,304.2l-48.1-16.9l64.1-16.9  L415.2,304.2z M400.4,241.2l40.5-32.4l-8.1,56.7L400.4,241.2z"/>
<path class="st1" d="M172.5,285.8c2.5,1.8,6.1,1.3,7.9-1.3c1.8-2.5,1.3-6.1-1.3-7.9c-2.5-1.8-6.1-1.3-7.9,1.3  C169.5,280.4,170,284,172.5,285.8z M197.3,287.4c-2.2-0.7-4.6,0.5-5.4,2.7c-0.7,2.2,0.5,4.6,2.7,5.4c2.2,0.7,4.6-0.5,5.4-2.7  C200.7,290.5,199.5,288.1,197.3,287.4z M218.1,292.1c-1.6,0-2.8,1.3-2.8,2.8c0,1.6,1.3,2.8,2.8,2.8c1.6,0,2.8-1.3,2.8-2.8  C220.9,293.3,219.7,292.1,218.1,292.1z M262.2,162.4c-1.3-0.9-3-0.6-4,0.6c-0.9,1.3-0.6,3,0.6,4c1.3,0.9,3,0.6,4-0.6  C263.7,165.1,263.5,163.3,262.2,162.4z M241.8,150.4c-2.2-0.7-4.6,0.5-5.4,2.7c-0.7,2.2,0.5,4.6,2.7,5.4c2.2,0.7,4.6-0.5,5.4-2.7  C245.2,153.6,244,151.2,241.8,150.4z M218.2,145.3c-3.1,0-5.7,2.5-5.7,5.7c0,3.1,2.5,5.7,5.7,5.7c3.1,0,5.7-2.5,5.7-5.7  C223.9,147.8,221.3,145.3,218.2,145.3z M193.8,147.7c-3.7,1.2-5.8,5.2-4.5,8.9c1.2,3.7,5.2,5.8,8.9,4.5c3.7-1.2,5.8-5.2,4.5-8.9  C201.5,148.6,197.5,146.5,193.8,147.7z M180.9,171.6c3.8-2.8,4.6-8.1,1.9-11.9c-2.8-3.8-8.1-4.6-11.9-1.9c-3.8,2.8-4.6,8.1-1.9,11.9  C171.8,173.5,177.1,174.3,180.9,171.6z M143.2,290.5c-2.6-2.9-7.1-3.1-10-0.5c-2.9,2.6-3.1,7.1-0.5,10c2.6,2.9,7.1,3.1,10,0.5  C145.6,297.9,145.8,293.4,143.2,290.5z M126.9,281.2c4.1-2.2,5.7-7.4,3.5-11.5c-2.2-4.1-7.4-5.7-11.5-3.5c-4.1,2.2-5.7,7.4-3.5,11.5  C117.6,281.9,122.7,283.4,126.9,281.2z M161,307.8c-2.6-1.8-6.1-1.1-7.9,1.5c-1.8,2.6-1.1,6.1,1.5,7.9c2.6,1.8,6.1,1.1,7.9-1.5  C164.3,313.1,163.6,309.6,161,307.8z M182.7,320.5c-2.2-0.8-4.6,0.3-5.4,2.5c-0.8,2.2,0.3,4.6,2.5,5.4c2.2,0.8,4.6-0.3,5.4-2.5  C186.1,323.7,184.9,321.3,182.7,320.5z M207.2,327.6c-1.6-0.2-3,1-3.1,2.5c-0.2,1.6,1,3,2.5,3.1c1.6,0.2,3-1,3.1-2.5  C209.9,329.1,208.8,327.7,207.2,327.6z M276.9,129c-1.3-0.8-3.1-0.4-3.9,0.9c-0.8,1.3-0.4,3.1,0.9,3.9c1.3,0.8,3.1,0.4,3.9-0.9  C278.7,131.5,278.3,129.8,276.9,129z M252.9,116.2c-2.2-0.7-4.6,0.5-5.4,2.7c-0.7,2.2,0.5,4.6,2.7,5.4c2.2,0.7,4.6-0.5,5.4-2.7  C256.3,119.3,255.1,116.9,252.9,116.2z M226.1,109.6c-3.1-0.2-5.8,2.1-6.1,5.3c-0.2,3.1,2.1,5.8,5.3,6c3.1,0.2,5.8-2.1,6.1-5.3  C231.6,112.5,229.3,109.8,226.1,109.6z M192.5,117.8c0.7,3.9,4.4,6.4,8.2,5.7s6.4-4.4,5.7-8.2c-0.7-3.9-4.4-6.4-8.2-5.7  C194.4,110.3,191.8,114,192.5,117.8z M177.7,132.1c4.3-1.9,6.2-6.9,4.3-11.2c-1.9-4.3-6.9-6.2-11.2-4.3c-4.3,1.9-6.2,6.9-4.3,11.2  C168.4,132,173.4,134,177.7,132.1z M146.2,130.8c-3.9,3.1-4.6,8.7-1.6,12.6c3.1,3.9,8.7,4.6,12.6,1.5c3.9-3.1,4.6-8.7,1.6-12.6  C155.7,128.4,150.1,127.7,146.2,130.8z M138.6,149.4c-3.9-3.1-9.6-2.4-12.6,1.5c-3.1,3.9-2.4,9.6,1.6,12.6c3.9,3.1,9.6,2.4,12.6-1.6  C143.2,158.1,142.5,152.4,138.6,149.4z M94.4,278.1c-1.9-4.3-6.9-6.2-11.2-4.3c-4.3,1.9-6.2,6.9-4.3,11.2c1.9,4.3,6.9,6.2,11.2,4.3  C94.4,287.4,96.3,282.4,94.4,278.1z M97.5,301.9c-3.2,2.3-3.9,6.7-1.6,9.9c2.3,3.2,6.7,3.9,9.9,1.6c3.2-2.3,3.9-6.7,1.6-9.9  C105.1,300.3,100.7,299.6,97.5,301.9z M126.1,333.8c2.1-2.3,1.9-5.9-0.4-8c-2.3-2.1-5.9-1.9-8,0.4c-2.1,2.3-1.9,5.9,0.4,8  C120.4,336.3,124,336.1,126.1,333.8z M149.9,349.8c1.2-2,0.5-4.6-1.6-5.8c-2-1.2-4.6-0.5-5.8,1.6c-1.2,2-0.5,4.6,1.6,5.8  S148.7,351.8,149.9,349.8z M174.5,357.2c-1.5-0.5-3.1,0.3-3.6,1.8c-0.5,1.5,0.3,3.1,1.8,3.6c1.5,0.5,3.1-0.3,3.6-1.8  C176.8,359.3,176,357.7,174.5,357.2z M291.6,95.8c-1.4-0.8-3.1-0.3-3.9,1c-0.8,1.4-0.3,3.1,1,3.9c1.4,0.8,3.1,0.3,3.9-1  C293.4,98.3,293,96.6,291.6,95.8z M264,82c-2.2-0.7-4.6,0.5-5.4,2.7c-0.7,2.2,0.5,4.6,2.7,5.4c2.2,0.7,4.6-0.5,5.4-2.7  C267.5,85.1,266.2,82.7,264,82z M238.9,80.3c0.3-3.1-1.9-5.9-5-6.2c-3.1-0.3-5.9,1.9-6.2,5c-0.3,3.1,1.9,5.9,5,6.2  C235.8,85.7,238.6,83.5,238.9,80.3z M202.4,72.7c-3.9,0.4-6.7,3.9-6.3,7.8c0.4,3.9,3.9,6.7,7.8,6.3c3.9-0.4,6.7-3.9,6.3-7.8  C209.8,75.1,206.3,72.3,202.4,72.7z M176.3,94.1c4.5-1.5,6.9-6.2,5.5-10.7c-1.5-4.5-6.2-6.9-10.7-5.5c-4.5,1.5-6.9,6.2-5.5,10.7  C167.1,93.1,171.9,95.5,176.3,94.1z M150.7,106c4.3-2.5,5.8-8,3.3-12.3c-2.5-4.3-8-5.8-12.3-3.3c-4.3,2.5-5.8,8-3.3,12.3  C140.9,107.1,146.4,108.5,150.7,106z M127.9,122.6c3.7-3.3,4-9,0.7-12.7c-3.3-3.7-9-4-12.7-0.7c-3.7,3.3-4,9-0.7,12.7  C118.5,125.7,124.2,126,127.9,122.6z M107,131c-4-2.9-9.7-2-12.6,2c-2.9,4-2,9.6,2,12.6c4,2.9,9.6,2,12.6-2  C111.9,139.6,111,134,107,131z M78.4,160.7c-2,4.5,0,9.9,4.6,11.9c4.5,2,9.9,0,11.9-4.6c2-4.5,0-9.9-4.6-11.9  C85.8,154.1,80.4,156.2,78.4,160.7z M46,276.1c-4.7,1.7-7.1,6.9-5.4,11.5c1.7,4.7,6.9,7.1,11.5,5.4c4.7-1.7,7.1-6.9,5.4-11.5  S50.6,274.4,46,276.1z M69.7,308.7c-2.3-4.1-7.5-5.5-11.6-3.1c-4.1,2.3-5.5,7.5-3.1,11.6c2.3,4.1,7.5,5.5,11.6,3.1  C70.6,318,72,312.8,69.7,308.7z M75.8,333.2c-3,2.5-3.4,7-0.9,10c2.5,3,7,3.4,10,0.9s3.4-7,0.9-10C83.2,331.1,78.8,330.7,75.8,333.2  z M98.2,357.2c-2,2.4-1.7,6,0.7,8c2.4,2,6,1.7,8-0.7c2-2.4,1.7-6-0.7-8C103.7,354.5,100.2,354.8,98.2,357.2z M130.3,375.2  c-2-1.2-4.6-0.5-5.8,1.6c-1.2,2-0.5,4.6,1.6,5.8c2,1.2,4.6,0.5,5.8-1.6C133.1,378.9,132.4,376.3,130.3,375.2z M157.6,389.4  c-1.5-0.5-3.1,0.2-3.6,1.7c-0.5,1.5,0.2,3.1,1.7,3.6c1.5,0.5,3.1-0.2,3.6-1.7C159.8,391.6,159,389.9,157.6,389.4z M281.2,49.8  c-2.2-0.8-4.6,0.3-5.4,2.5c-0.8,2.2,0.3,4.6,2.5,5.5c2.2,0.8,4.6-0.3,5.4-2.5C284.6,53.1,283.4,50.6,281.2,49.8z M309.7,64.7  c-1.4-0.8-3.1-0.3-3.9,1c-0.8,1.4-0.3,3.1,1,3.9c1.4,0.8,3.1,0.3,3.9-1C311.5,67.2,311,65.5,309.7,64.7z M255,46.7  c0.5-3.1-1.5-6-4.6-6.6c-3.1-0.5-6,1.5-6.6,4.6c-0.5,3.1,1.5,6,4.6,6.6C251.6,51.8,254.5,49.8,255,46.7z M218.2,50  c3.9,0,7.1-3.2,7.1-7.1c0-3.9-3.2-7.1-7.1-7.1c-3.9,0-7.1,3.2-7.1,7.1C211.1,46.9,214.3,50,218.2,50z M195.3,44.2  c-0.8-4.6-5.2-7.7-9.9-6.9c-4.6,0.8-7.7,5.2-6.9,9.9c0.8,4.6,5.2,7.7,9.9,6.9C193,53.3,196.1,48.8,195.3,44.2z M153.6,45.4  c-4.7,1.7-7.1,6.9-5.4,11.5c1.7,4.7,6.9,7.1,11.5,5.4c4.7-1.7,7.1-6.9,5.4-11.5C163.4,46.1,158.2,43.7,153.6,45.4z M123.7,59.3  c-4.3,2.5-5.8,8-3.3,12.3c2.5,4.3,8,5.8,12.3,3.3c4.3-2.5,5.8-8,3.3-12.3C133.5,58.3,128,56.8,123.7,59.3z M96.7,78.2  c-3.8,3.2-4.3,8.9-1.1,12.7c3.2,3.8,8.9,4.3,12.7,1.1c3.8-3.2,4.3-8.9,1.1-12.7C106.2,75.5,100.5,75,96.7,78.2z M73.4,101.5  c-3.2,3.8-2.7,9.5,1.1,12.7c3.8,3.2,9.5,2.7,12.7-1.1c3.2-3.8,2.7-9.5-1.1-12.7C82.3,97.2,76.6,97.7,73.4,101.5z M54.5,128.5  c-2.5,4.3-1,9.8,3.3,12.3c4.3,2.5,9.8,1,12.3-3.3c2.5-4.3,1-9.8-3.3-12.3C62.5,122.7,57,124.2,54.5,128.5z M52.1,152.9  c-4.7-1.7-9.8,0.7-11.5,5.4c-1.7,4.7,0.7,9.8,5.4,11.5c4.7,1.7,9.8-0.7,11.5-5.4C59.2,159.8,56.8,154.6,52.1,152.9z M19.2,280  c-1.4-4.8-6.4-7.5-11.1-6.2c-4.8,1.4-7.5,6.4-6.2,11.1c1.4,4.8,6.4,7.5,11.1,6.2C17.8,289.8,20.6,284.8,19.2,280z M29.1,307.2  c-2-4.5-7.3-6.6-11.9-4.6c-4.5,2-6.6,7.3-4.6,11.9c2,4.5,7.3,6.6,11.9,4.6C29.1,317,31.1,311.7,29.1,307.2z M42.7,332.7  c-2.6-4.2-8.2-5.5-12.4-2.9c-4.2,2.6-5.5,8.2-2.9,12.4c2.6,4.2,8.2,5.5,12.4,2.9C44,342.4,45.3,336.9,42.7,332.7z M46.9,354.9  c-3.8,3.2-4.3,8.9-1.1,12.7c3.2,3.8,8.9,4.3,12.7,1.1c3.8-3.2,4.3-8.9,1.1-12.7C56.4,352.2,50.8,351.7,46.9,354.9z M79.4,377.2  c-3.5-3.1-8.9-2.9-12,0.6c-3.1,3.5-2.9,8.9,0.6,12c3.5,3.1,8.9,2.9,12-0.6C83.1,385.7,82.8,380.3,79.4,377.2z M101.4,396.2  c-3.2-2.2-7.6-1.3-9.8,1.9c-2.2,3.2-1.3,7.6,1.9,9.8c3.2,2.2,7.6,1.3,9.8-1.9C105.5,402.8,104.6,398.3,101.4,396.2z M126,412  c-2.8-1.4-6.2-0.2-7.6,2.6c-1.4,2.8-0.2,6.2,2.6,7.6c2.8,1.4,6.2,0.2,7.6-2.6C130,416.8,128.8,413.4,126,412z M152.7,424.3  c-2.2-0.7-4.6,0.5-5.4,2.7c-0.7,2.2,0.5,4.6,2.7,5.4c2.2,0.7,4.6-0.5,5.4-2.7C156.2,427.4,155,425,152.7,424.3z M181.1,432.8  c-1.5-0.3-3,0.8-3.3,2.3c-0.3,1.5,0.8,3,2.3,3.3c1.5,0.3,3-0.8,3.3-2.3C183.7,434.6,182.6,433.1,181.1,432.8z M300.2,20.1  c-1.5-0.6-3.1,0.1-3.7,1.6c-0.6,1.5,0.1,3.1,1.6,3.7c1.5,0.6,3.1-0.1,3.7-1.6C302.3,22.3,301.6,20.6,300.2,20.1z M274.6,14.4  c0.6-2.3-0.8-4.6-3.1-5.2c-2.3-0.6-4.6,0.8-5.2,3.1c-0.6,2.3,0.8,4.6,3.1,5.2C271.7,18.1,274,16.7,274.6,14.4z M240.2,13.8  c3.1,0.3,5.9-1.9,6.2-5c0.3-3.1-1.9-5.9-5-6.2c-3.1-0.3-5.9,1.9-6.2,5C234.8,10.7,237.1,13.4,240.2,13.8z M217.7,6.8  c-0.1-3.9-3.4-7-7.3-6.8c-3.9,0.1-7,3.4-6.8,7.3c0.1,3.9,3.4,7,7.3,6.8C214.8,14,217.9,10.7,217.7,6.8z M182.2,18.6  c4.6-0.8,7.7-5.2,6.9-9.9c-0.8-4.6-5.2-7.7-9.9-6.9c-4.6,0.8-7.7,5.2-6.9,9.8C173.1,16.3,177.5,19.4,182.2,18.6z M154.2,26.1  c4.7-1.5,7.3-6.6,5.8-11.3c-1.5-4.7-6.6-7.3-11.3-5.8c-4.7,1.5-7.3,6.6-5.8,11.3C144.4,25,149.5,27.6,154.2,26.1z M127.5,36.9  c4.5-2.2,6.3-7.6,4.1-12c-2.2-4.5-7.6-6.3-12-4.1c-4.5,2.2-6.3,7.6-4.1,12C117.6,37.2,123,39.1,127.5,36.9z M102.4,51.3  c4.1-2.8,5.2-8.4,2.4-12.5c-2.8-4.1-8.4-5.2-12.5-2.4c-4.1,2.8-5.2,8.4-2.4,12.5C92.7,53,98.3,54.1,102.4,51.3z M79.7,69.1  c3.7-3.3,4-9,0.7-12.7c-3.3-3.7-9-4-12.7-0.7c-3.7,3.3-4,9-0.7,12.7C70.3,72.2,76,72.4,79.7,69.1z M46.9,91  c3.8,3.2,9.5,2.7,12.7-1.1c3.2-3.8,2.7-9.5-1.1-12.7c-3.8-3.2-9.5-2.7-12.7,1.1C42.6,82.1,43.1,87.8,46.9,91z M30.3,116.1  c4.2,2.6,9.8,1.3,12.4-2.9c2.6-4.2,1.4-9.8-2.9-12.4c-4.2-2.6-9.8-1.4-12.4,2.9C24.8,107.9,26,113.5,30.3,116.1z M17.2,143.3  c4.5,2,9.9,0,11.9-4.6c2-4.5,0-9.9-4.6-11.9c-4.5-2-9.9,0-11.9,4.6C10.6,136,12.7,141.3,17.2,143.3z M8.1,172.1  c4.8,1.4,9.8-1.4,11.1-6.2c1.4-4.8-1.4-9.8-6.2-11.1c-4.8-1.4-9.8,1.4-11.1,6.2C0.5,165.7,3.3,170.7,8.1,172.1z"/>
<g>
	<polygon class="st0" points="28.7,229.2 9.5,184.2 0,184.2 0,253.3 10.1,253.3 10.1,210.2 10.3,210.2 24.3,243.4 32.8,243.4    46.8,210.2 47,210.2 47,253.3 57.1,253.3 57.1,184.2 47.5,184.2  "/>
	<polygon class="st0" points="73.5,253.3 116.2,253.3 116.2,243.4 83.6,243.4 83.6,223.1 111.5,223.1 111.5,213.8 83.6,213.8    83.6,194.1 116.2,194.1 116.2,184.2 73.5,184.2  "/>
	<path class="st0" d="M171.2,195.9c-4.5-7.7-11.3-11.6-20.4-11.7h-23.4v69.1h22.7c5,0,9.3-1.1,12.7-3.4c3.5-2.1,6.2-4.8,8.2-8.1   c0.7-1.2,1.4-2.4,1.9-3.6c0.5-1.2,0.9-2.5,1.1-4c0.5-2.9,0.8-8.1,0.8-15.5c0-7-0.2-11.9-0.5-14.7   C173.9,201.2,172.9,198.5,171.2,195.9z M164.3,231.8c-0.3,2.3-1,4.2-2.2,5.6c-2.6,4-6.7,6-12.4,6h-12.1v-49.4h12.1   c5.1-0.1,9.1,1.8,11.9,5.8c1.4,1.6,2.3,3.7,2.6,6.3c0.3,2.6,0.4,6.9,0.4,12.9C164.7,225.3,164.5,229.5,164.3,231.8z"/>
	<path class="st0" d="M224.7,228.8c-0.1,4.7-1.3,8.3-3.9,10.8c-2.6,2.6-5.8,3.9-9.8,3.9c-3.9,0-7.2-1.3-9.7-3.9   c-2.6-2.5-3.9-6.1-4-10.8v-44.6h-10.1v45.7c0.1,7.3,2.4,13,7,17.3c4.5,4.4,10.1,6.6,16.8,6.7c6.8-0.1,12.5-2.3,16.9-6.7   c4.4-4.3,6.7-10,6.8-17.3v-45.7h-10.1V228.8z"/>
	<path class="st0" d="M274.5,213.9c-3.2-0.4-5.7-0.8-7.5-1.1c-3.3-0.6-5.7-1.8-7.2-3.4c-1.5-1.6-2.2-3.4-2.2-5.4   c0.1-3.3,1.2-5.8,3.4-7.5c2.1-1.6,4.7-2.4,7.8-2.4c6,0.1,11.6,1.9,16.6,5.3l5.6-8.6c-6.1-4.6-13.4-6.9-21.7-7.1   c-6.9,0.1-12.2,1.9-16,5.6c-3.9,3.7-5.8,8.6-5.8,14.6c0,5,1.5,9.3,4.6,12.8c3,3.4,7.4,5.6,13.1,6.6c3.2,0.5,6.2,0.9,8.9,1.3   c5.9,1,8.8,4.1,8.7,9.3c-0.1,6.3-4.5,9.5-13.2,9.6c-7.3-0.1-13.7-2.4-19-6.9l-6.6,7.9c7.1,6.3,15.6,9.4,25.5,9.4   c15.3-0.2,23.1-6.9,23.5-20.1c0-4.9-1.5-9.2-4.5-12.9C285.4,217.1,280.8,214.8,274.5,213.9z"/>
	<path class="st0" d="M331.1,184.2h-8.5l-24.3,69.1h10.7l5.1-15.4h25.4l5.2,15.4h10.7L331.1,184.2z M317.1,228.6l9.7-30.2h0.2   l9.7,30.2H317.1z"/>
</g>
</svg>