<?xml version="1.0" encoding="utf-8"?>
<!-- Generator: Adobe Illustrator 21.0.0, SVG Export Plug-In . SVG Version: 6.00 Build 0)  -->
<svg version="1.1" id="Calque_1" xmlns="http://www.w3.org/2000/svg" xmlns:xlink="http://www.w3.org/1999/xlink" x="0px" y="0px"
	 width="72px" height="72px" viewBox="0 0 72 72" style="enable-background:new 0 0 72 72;" xml:space="preserve">
<style type="text/css">
	.st0{fill:#56B2E4;}
	.st1{fill:#FFFFFF;}
</style>
<g>
	<path class="st0" d="M72.1,56.2c0,8.7-7,15.8-15.7,15.8H15.6C7,72-0.1,64.9-0.1,56.2V15.8C-0.1,7.1,7,0,15.6,0h40.8
		C65,0,72.1,7.1,72.1,15.8V56.2z"/>
	<g>
		<path class="st1" d="M49.3,49.5H36c-1.8,0-3.4-0.6-4.7-1.9c-1.3-1.3-1.9-2.9-1.9-4.7v-4.7h18.9c1.7,0,3.2-0.6,4.4-1.8
			c1.2-1.2,1.8-2.7,1.8-4.4c0-1.7-0.6-3.2-1.8-4.4c-1.2-1.2-2.7-1.8-4.4-1.8H29.4v-9.8c0-1.8-0.7-3.4-2-4.7c-1.3-1.3-2.9-2-4.7-2
			c-1.9,0-3.5,0.7-4.8,1.9c-1.3,1.3-2,2.9-2,4.8v27c0,5.5,2,10.3,5.9,14.2C25.8,61,30.5,63,36,63h13.3c1.8,0,3.4-0.7,4.7-2
			c1.3-1.3,2-2.9,2-4.7c0-1.8-0.7-3.4-2-4.7C52.7,50.2,51.2,49.5,49.3,49.5L49.3,49.5z M49.3,49.5"/>
	</g>
</g>
</svg>
