<?xml version="1.0" encoding="utf-8"?>
<!-- Generator: Adobe Illustrator 21.0.0, SVG Export Plug-In . SVG Version: 6.00 Build 0)  -->
<svg version="1.1" id="Calque_1" xmlns="http://www.w3.org/2000/svg" xmlns:xlink="http://www.w3.org/1999/xlink" x="0px" y="0px"
	 width="72px" height="72px" viewBox="0 0 72 72" style="enable-background:new 0 0 72 72;" xml:space="preserve">
<style type="text/css">
	.st0{fill:#1E4485;}
</style>
<path class="st0" d="M56.4,0H15.6C7.5,0,0.7,6.3,0,14.3v43.4C0.7,65.7,7.5,72,15.6,72H36V44.8h-8.8v-12H36v-4.7
	c0-8.1,6.1-15.3,13.5-15.3h9.7v12h-9.7c-1.1,0-2.3,1.3-2.3,3.2v4.8h12v12h-12V72h9.2c8.2,0,14.9-6.3,15.6-14.3V14.3
	C71.3,6.3,64.5,0,56.4,0z"/>
</svg>
