<?xml version="1.0" encoding="utf-8"?>
<!-- Generator: Adobe Illustrator 21.0.0, SVG Export Plug-In . SVG Version: 6.00 Build 0)  -->
<svg version="1.1" id="Calque_1" xmlns="http://www.w3.org/2000/svg" xmlns:xlink="http://www.w3.org/1999/xlink" x="0px" y="0px"
	 width="72px" height="72px" viewBox="0 0 72 72" style="enable-background:new 0 0 72 72;" xml:space="preserve">
<style type="text/css">
	.st0{fill:url(#SVGID_1_);}
	.st1{fill:#FFFFFF;}
</style>
<g>
	<radialGradient id="SVGID_1_" cx="20.8946" cy="71.8219" r="72.7346" gradientUnits="userSpaceOnUse">
		<stop  offset="0" style="stop-color:#FFD677"/>
		<stop  offset="0.2463" style="stop-color:#F1A454"/>
		<stop  offset="0.3793" style="stop-color:#F15D3D"/>
		<stop  offset="0.5412" style="stop-color:#D94967"/>
		<stop  offset="0.6995" style="stop-color:#C33087"/>
		<stop  offset="0.913" style="stop-color:#7D64A7"/>
		<stop  offset="0.9852" style="stop-color:#5D6DB3"/>
	</radialGradient>
	<path class="st0" d="M72.1,56.2c0,8.7-7,15.8-15.7,15.8H15.6C7,72-0.1,64.9-0.1,56.2V15.8C-0.1,7.1,7,0,15.6,0h40.8
		C65,0,72.1,7.1,72.1,15.8V56.2z"/>
	<g>
		<g>
			<path class="st1" d="M46.8,63H25.2c-8.5,0-15.4-6.9-15.4-15.4V24.5c0-8.5,6.9-15.4,15.4-15.4h21.6c8.5,0,15.4,6.9,15.4,15.4v23.1
				C62.2,56.1,55.3,63,46.8,63z M25.2,13.1c-6.3,0-11.4,5.1-11.4,11.4v23.1c0,6.3,5.1,11.4,11.4,11.4h21.6c6.3,0,11.4-5.1,11.4-11.4
				V24.5c0-6.3-5.1-11.4-11.4-11.4H25.2z"/>
		</g>
		<g>
			<path class="st1" d="M36,50.3c-7.9,0-14.3-6.4-14.3-14.3c0-3.9,1.6-7.7,4.4-10.4c2.7-2.6,6.3-4,10-3.9c4.5,0.1,8.1,1.6,10.7,4.3
				c2.4,2.6,3.6,6,3.5,10v0c-0.1,3.8-1.6,7.4-4.2,10.1C43.4,48.8,39.8,50.3,36,50.3z M35.7,26.5c-2.3,0-4.5,0.9-6.2,2.6
				c-1.9,1.8-2.9,4.3-2.9,6.9c0,5.2,4.3,9.5,9.5,9.5c5.2,0,9.4-4.2,9.5-9.5c0.1-2.7-0.7-5-2.2-6.6c-1.6-1.8-4.2-2.7-7.3-2.8
				C35.8,26.5,35.8,26.5,35.7,26.5z"/>
		</g>
		<circle class="st1" cx="50.6" cy="21.3" r="3.3"/>
	</g>
</g>
</svg>
