<?xml version="1.0" encoding="utf-8"?>
<!-- Generator: Adobe Illustrator 21.0.0, SVG Export Plug-In . SVG Version: 6.00 Build 0)  -->
<svg version="1.1" id="Layer_1" xmlns="http://www.w3.org/2000/svg" xmlns:xlink="http://www.w3.org/1999/xlink" x="0px" y="0px"
	 width="62.6px" height="50px" viewBox="0 0 62.6 50" style="enable-background:new 0 0 62.6 50;" xml:space="preserve">
<style type="text/css">
	.st0{fill:#808285;}
	.st1{fill:#58595B;}
	.st2{fill:#A7A9AC;}
	.st3{fill:#010101;}
</style>
<g>
	<path class="st0" d="M24.1,37.6c0.8,1,1.7,1.9,2.6,2.6c-0.2,0.1-0.3,0.3-0.4,0.5l-2.1,3.6c-0.5,0.9-0.2,2,0.7,2.5l1,0.6
		c0.9,0.5,2,0.2,2.5-0.7l2.1-3.6c0.1-0.2,0.2-0.4,0.2-0.6c0.9,0.3,1.9,0.6,2.9,0.8c-0.1,0.2-0.2,0.5-0.2,0.7v4.1
		c0,1,0.8,1.8,1.8,1.8h1.2c1,0,1.8-0.8,1.8-1.8V44c0-0.2-0.1-0.4-0.1-0.6c1.2-0.1,2.4-0.4,3.5-0.8c0.1,0.2,0.1,0.4,0.2,0.6l2,3.6
		c0.5,0.9,1.7,1.2,2.5,0.7l1-0.6c0.9-0.5,1.2-1.7,0.7-2.5l-2-3.6c-0.1-0.1-0.2-0.3-0.3-0.4c1-0.8,2-1.7,2.8-2.6
		c0.2,0.2,0.3,0.4,0.6,0.6l3.6,2c0.9,0.5,2,0.2,2.5-0.7l0.6-1c0.5-0.9,0.2-2-0.7-2.5l-3.6-2c-0.2-0.1-0.4-0.2-0.7-0.2
		c0.5-1.1,0.8-2.3,1-3.5c0.2,0.1,0.4,0.1,0.6,0.1h4.1c1,0,1.8-0.8,1.8-1.8v-1.2c0-1-0.8-1.8-1.8-1.8h-4.1c-0.2,0-0.3,0-0.5,0.1
		c-0.2-1.2-0.4-2.5-0.9-3.6c0.2-0.1,0.3-0.1,0.5-0.2l3.6-2c0.9-0.5,1.2-1.6,0.7-2.5l-0.6-1c-0.5-0.9-1.7-1.2-2.5-0.7l-3.6,2
		c-0.2,0.1-0.3,0.2-0.4,0.3c-0.8-1-1.7-1.9-2.8-2.7c0.2-0.2,0.4-0.3,0.6-0.6l2-3.5c0.5-0.9,0.2-2-0.7-2.5l-1-0.6
		c-0.9-0.5-2-0.2-2.5,0.7l-1.9,3.4c-0.2,0.2-0.2,0.5-0.2,0.8c-1.3-0.5-2.8-0.9-4.1-1c0.1-0.2,0.2-0.5,0.2-0.7V7.5
		c0-1-0.8-1.8-1.8-1.8h-1.2c-1,0-1.8,0.8-1.8,1.8v4.1c0,0.3,0.1,0.6,0.2,0.9c-1,0.2-2.1,0.5-3.1,0.9c-0.1-0.2-0.1-0.3-0.2-0.4
		l-2-3.5C28,8.6,26.9,8.3,26,8.8l-1,0.6c-0.9,0.5-1.2,1.6-0.7,2.5l2,3.5c0.1,0.2,0.2,0.3,0.3,0.4c-1,0.8-1.9,1.8-2.7,2.8
		c-0.2-0.3-0.4-0.5-0.7-0.7l-3.5-2c-0.9-0.5-2-0.2-2.6,0.7l-0.6,1c-0.5,0.9-0.2,2,0.7,2.5l3.5,2c0.3,0.2,0.7,0.3,1,0.2
		c-0.5,1.3-0.8,2.7-1,4.1c-0.2-0.1-0.4-0.1-0.7-0.1h-4.1c-1,0-1.8,0.8-1.8,1.8v1.2c0,1,0.8,1.8,1.8,1.8h4.1c0.3,0,0.6-0.1,0.8-0.2
		c0.2,0.9,0.4,1.9,0.8,2.8c-0.2,0.1-0.4,0.1-0.7,0.2L17.7,36c-0.9,0.5-1.2,1.6-0.7,2.5l0.6,1c0.5,0.9,1.6,1.2,2.5,0.7l3.6-2
		C23.8,38,24,37.8,24.1,37.6z M28.4,32.7c-2.5-4.4-1-10,3.4-12.6s10.1-1,12.6,3.4s1,10-3.4,12.6C36.6,38.7,31,37.1,28.4,32.7z"/>
	<path class="st1" d="M8.4,21.4C11,10.8,13.5,6.7,14.2,5.3c0.7-1.5,2.9-4.5,6-5.1c3.2-0.6,7.6,1.2,8,1.4c0.4,0.2,4.1,1.5,5.6,3.9
		c1.5,2.4,1.4,5.6-0.3,9.6c-1.7,4.1-4,7.4-4.7,9.2c-0.6,1.3-0.9,3.3-0.7,7.9c0.2,4.5-0.1,8.2-1.7,10.5c-1.4,2-4.2,3.6-9.1,3.5
		c-4.9-0.1-7.1-2.3-8.4-4.5C7.4,39.1,5.8,32.1,8.4,21.4z"/>
	<path class="st2" d="M10.5,21.2C13,11.5,15,8.1,15.7,6.8c0.9-1.6,2.2-3.9,4.8-4.5s6.3,0.9,6.6,1.1c0.3,0.2,3.6,1.3,4.9,3.4
		c1.3,2.2,0.8,5-0.7,8.4c-1.5,3.6-3.6,6.6-4.2,8.2c-0.4,1.1-1,3.1-0.9,7.1c0.2,4,0.1,8.6-1.3,10.5c-1.2,1.8-3.4,3.2-7.4,3.1
		c-4.1-0.1-6-2-7.1-3.9C9.2,38,8.1,30.5,10.5,21.2z"/>
	<path class="st1" d="M20.5,12.4c0.1,0.3,0.2,0.7,0.4,1c-0.1,0-0.1,0.1-0.2,0.1l-0.9,0.7c-0.2,0.2-0.3,0.5-0.1,0.7l0.2,0.3
		c0.2,0.2,0.5,0.3,0.7,0.1l0.9-0.7c0.1-0.1,0.1-0.1,0.1-0.1c0.2,0.2,0.4,0.4,0.7,0.6c-0.1,0.1-0.1,0.1-0.1,0.2l-0.4,1.1
		c-0.1,0.3,0,0.6,0.3,0.7l0.3,0.1c0.3,0.1,0.6,0,0.7-0.3l0.4-1.1c0-0.1,0.1-0.1,0.1-0.2c0.3,0.1,0.7,0.2,1,0.2c0,0.1,0,0.1,0,0.2
		l0.2,1.2c0.1,0.3,0.3,0.5,0.6,0.4l0.3-0.1c0.3-0.1,0.5-0.3,0.4-0.6L26,15.7c0-0.1,0-0.1-0.1-0.1c0.4-0.1,0.7-0.2,1-0.4
		c0,0.1,0.1,0.2,0.1,0.2l0.7,0.9c0.2,0.2,0.5,0.3,0.7,0.1l0.3-0.2c0.2-0.2,0.3-0.5,0.1-0.7l-0.7-0.9c-0.1-0.1-0.1-0.1-0.2-0.1
		c0.3-0.2,0.5-0.5,0.7-0.8c0.1,0.1,0.1,0.1,0.2,0.1l1.1,0.4c0.3,0.1,0.6,0,0.7-0.3l0.1-0.3c0.1-0.3,0-0.6-0.3-0.7l-1.1-0.4
		c-0.1,0-0.1-0.1-0.2-0.1c0.1-0.3,0.2-0.7,0.2-1c0.1,0,0.1,0,0.2,0l1.2-0.2c0.3-0.1,0.5-0.3,0.4-0.6l-0.1-0.3
		c-0.1-0.3-0.3-0.5-0.6-0.4l-1.2,0.2c-0.1,0-0.1,0-0.2,0.1c-0.1-0.4-0.2-0.7-0.4-1C28.8,9.1,28.9,9,29,9l0.9-0.7
		c0.2-0.2,0.3-0.5,0.1-0.7l-0.2-0.2c-0.2-0.2-0.5-0.3-0.7-0.1l-0.9,0.7C28.1,8,28.1,8,28,8.1c-0.3-0.3-0.6-0.6-1-0.7
		c0.1-0.1,0.1-0.1,0.1-0.2l0.4-1.1c0.1-0.3,0-0.6-0.3-0.7L27,5.3c-0.3-0.1-0.6,0-0.7,0.3l-0.4,1.1c-0.1,0.1-0.1,0.2-0.1,0.3
		c-0.3-0.1-0.6-0.1-0.9-0.1c0-0.1,0-0.1,0-0.2l-0.2-1.2c-0.1-0.3-0.3-0.5-0.6-0.4L23.8,5c-0.3,0.1-0.5,0.3-0.4,0.6l0.2,1.2
		c0,0.1,0,0.1,0.1,0.2c-0.4,0.1-0.7,0.3-1,0.4c0-0.1-0.1-0.2-0.1-0.3l-0.8-0.9C21.5,6,21.2,5.9,21,6.1l-0.3,0.2
		c-0.2,0.2-0.3,0.5-0.1,0.7L21.3,8c0.1,0.1,0.2,0.2,0.2,0.2c-0.3,0.3-0.5,0.6-0.7,1c-0.1-0.1-0.1-0.1-0.2-0.1l-1.1-0.4
		c-0.3-0.1-0.6,0-0.7,0.3l-0.1,0.3c-0.1,0.3,0,0.6,0.3,0.7l1.1,0.4c0.1,0.1,0.2,0.1,0.2,0.1c-0.1,0.3-0.1,0.6-0.1,0.8
		c-0.1,0-0.1,0-0.2,0l-1.2,0.2c-0.3,0.1-0.5,0.3-0.4,0.6l0.1,0.3c0.1,0.3,0.3,0.5,0.6,0.4l1.2-0.2C20.3,12.5,20.4,12.5,20.5,12.4z"
		/>
	<path class="st0" d="M22.1,11.7C22,10.2,23,8.9,24.4,8.7c1.5-0.2,2.8,0.8,3,2.3c0.2,1.4-0.8,2.8-2.3,2.9
		C23.7,14.1,22.3,13.1,22.1,11.7z"/>
	<path class="st1" d="M14,17.3c-0.3-1.3,0.5-2.6,1.8-3s2.7,0.5,3,1.8s-0.6,2.6-1.9,2.9C15.7,19.4,14.3,18.6,14,17.3z"/>
	<path class="st1" d="M18.8,15.8l0.7-0.2c0.2-0.1,0.3,0.1,0.3,0.2l0.1,0.2c0.1,0.2-0.1,0.3-0.2,0.3L19,16.6
		c-0.2,0.1-0.3-0.1-0.3-0.2l-0.1-0.2C18.5,16.1,18.6,15.9,18.8,15.8z"/>
	<path class="st1" d="M13.2,17.1l0.6-0.2c0.2-0.1,0.3,0.1,0.3,0.2l0.1,0.2c0.1,0.2-0.1,0.3-0.2,0.3l-0.6,0.2
		c-0.2,0.1-0.3-0.1-0.3-0.2L13,17.4C13,17.3,13.1,17.2,13.2,17.1z"/>
	<path class="st1" d="M17.3,19.1l0.2,0.6c0.1,0.2-0.1,0.3-0.2,0.3L17,20.1c-0.2,0.1-0.3-0.1-0.3-0.2l-0.2-0.6
		c-0.1-0.2,0.1-0.3,0.2-0.3l0.2-0.1C17.1,18.9,17.3,18.9,17.3,19.1z"/>
	<path class="st1" d="M16,13.6l0.2,0.7c0.1,0.2-0.1,0.3-0.2,0.3l-0.2,0.1c-0.2,0.1-0.3-0.1-0.3-0.2l-0.2-0.7
		c-0.1-0.2,0.1-0.3,0.2-0.3l0.2-0.1C15.8,13.4,16,13.4,16,13.6z"/>
	<path class="st1" d="M13.4,15.6l0.6,0.2c0.2,0.1,0.2,0.2,0.2,0.3l-0.1,0.2c-0.1,0.2-0.2,0.2-0.3,0.2l-0.6-0.2
		C13.1,16.2,13,16.1,13,16l0.1-0.2C13.1,15.6,13.3,15.6,13.4,15.6z"/>
	<path class="st1" d="M14.4,14.2l0.4,0.5c0.1,0.1,0.1,0.3,0,0.4l-0.1,0.1c-0.1,0.1-0.3,0.1-0.4,0l-0.4-0.5c-0.1-0.1-0.1-0.3,0-0.4
		l0.1-0.1C14.1,14.1,14.3,14.1,14.4,14.2z"/>
	<path class="st1" d="M18.4,18.4l0.4,0.4c0.1,0.1,0.1,0.3,0,0.4l-0.1,0.1c-0.1,0.1-0.3,0.1-0.4,0l-0.5-0.4c-0.1-0.1-0.1-0.3,0-0.4
		l0.1-0.1C18.1,18.3,18.3,18.3,18.4,18.4z"/>
	<path class="st1" d="M14.9,18.8l-0.4,0.4c-0.1,0.1-0.3,0.1-0.4,0L13.9,19c-0.1-0.1-0.1-0.3,0-0.4l0.4-0.4c0.1-0.1,0.3-0.1,0.4,0
		l0.1,0.1C15,18.4,15,18.7,14.9,18.8z"/>
	<path class="st1" d="M19,14.9l-0.5,0.4c-0.1,0.1-0.3,0.1-0.4,0L18,15.2c-0.1-0.1-0.1-0.3,0-0.4l0.5-0.4c0.1-0.1,0.3-0.1,0.4,0
		l0.1,0.1C19.1,14.5,19.1,14.7,19,14.9z"/>
	<path class="st1" d="M18.9,17.2l0.6,0.2c0.2,0.1,0.2,0.2,0.2,0.3l-0.1,0.2c-0.1,0.2-0.2,0.2-0.4,0.2l-0.6-0.2
		c-0.2-0.1-0.2-0.2-0.2-0.3l0.1-0.2C18.6,17.2,18.8,17.2,18.9,17.2z"/>
	<path class="st1" d="M17.7,13.8l-0.2,0.6c-0.1,0.2-0.2,0.2-0.4,0.2l-0.2-0.1c-0.2-0.1-0.2-0.2-0.2-0.4l0.2-0.6
		c0.1-0.2,0.2-0.2,0.4-0.2l0.2,0.1C17.6,13.4,17.7,13.6,17.7,13.8z"/>
	<path class="st1" d="M16,19.2l-0.2,0.6C15.8,20,15.6,20,15.5,20l-0.2-0.1c-0.2-0.1-0.2-0.2-0.2-0.3l0.2-0.6
		c0.1-0.2,0.2-0.2,0.3-0.2l0.2,0.1C15.9,18.9,16,19.1,16,19.2z"/>
	<path class="st0" d="M15,17.1c-0.2-0.8,0.3-1.5,1-1.7c0.8-0.2,1.6,0.3,1.8,1.1c0.2,0.8-0.3,1.5-1.1,1.7
		C15.9,18.4,15.2,17.9,15,17.1z"/>
	<path class="st3" d="M0.8,25.1c0.1,0.1,0.2,0.3,0.3,0.3l-0.1,0.1l-0.3,0.4c-0.1,0.1-0.1,0.2,0.1,0.3L1,26.3
		c0.1,0.1,0.3,0.1,0.3-0.1l0.3-0.4c0,0,0-0.1,0.1-0.1c0.1,0.1,0.2,0.1,0.3,0.1c0,0,0,0.1,0,0.1v0.5c0,0.1,0.1,0.2,0.2,0.2h0.2
		c0.1,0,0.2-0.1,0.2-0.2v-0.5c0-0.1,0-0.1,0-0.1c0.2,0,0.3-0.1,0.4-0.1c0,0,0,0.1,0.1,0.1l0.3,0.4c0.1,0.1,0.2,0.2,0.3,0.1l0.2-0.1
		C4,26.3,4,26.2,4,26.1l-0.3-0.5c0,0,0-0.1-0.1-0.1c0.2-0.1,0.3-0.2,0.4-0.3c0,0.1,0.1,0.1,0.1,0.1l0.5,0.3c0.1,0.1,0.3,0.1,0.3-0.1
		L5,25.3C5.1,25.2,5.1,25.1,5,25l-0.5-0.3c-0.1,0-0.1-0.1-0.1-0.1c0.1-0.2,0.1-0.3,0.2-0.4h0.1h0.6c0.2,0,0.3-0.1,0.3-0.2v-0.2
		c0-0.1-0.1-0.2-0.2-0.2H4.6H4.6c0-0.2-0.1-0.3-0.1-0.5h0.1L5,22.9c0.1-0.1,0.2-0.2,0.1-0.3l-0.1-0.1c-0.1-0.1-0.2-0.2-0.3-0.1
		l-0.5,0.3c0,0-0.1,0-0.1,0.1c-0.1-0.1-0.2-0.3-0.3-0.4c0.1,0,0.1-0.1,0.1-0.1l0.3-0.4c0.1-0.1,0.1-0.3-0.1-0.3L4,21.4
		c-0.1-0.1-0.3-0.1-0.3,0.1l-0.3,0.4C3.4,22,3.4,22,3.4,22C3.2,22,3,21.9,2.8,21.9c0-0.1,0-0.1,0-0.1v-0.6c0-0.1-0.1-0.2-0.2-0.2
		H2.3c-0.1,0-0.2,0.1-0.2,0.2v0.6c0,0.1,0,0.1,0.1,0.1c-0.2,0-0.3,0.1-0.4,0.1v-0.1l-0.3-0.4c-0.1-0.1-0.2-0.2-0.3-0.1L1,21.4
		c-0.1,0.1-0.2,0.2-0.1,0.3l0.3,0.4c0,0,0,0.1,0.1,0.1c-0.1,0.1-0.3,0.2-0.3,0.3c0-0.1-0.1-0.1-0.1-0.1l-0.4-0.3
		c-0.1-0.1-0.2-0.1-0.3,0.1l-0.1,0.1C0,22.5,0,22.6,0.1,22.7L0.6,23C0.6,23,0.7,23,0.7,23c-0.1,0.2-0.1,0.3-0.1,0.5c0,0-0.1,0-0.1,0
		h-0.5c-0.1,0-0.2,0.1-0.2,0.2v0.2c0,0.1,0.1,0.2,0.2,0.2h0.5c0.1,0,0.1,0,0.1,0c0,0.1,0.1,0.2,0.1,0.4c-0.1,0-0.1,0-0.1,0l-0.4,0.2
		C0,24.8-0.1,25,0,25l0.1,0.1c0.1,0.1,0.2,0.2,0.3,0.1L0.8,25.1C0.8,25.1,0.8,25.1,0.8,25.1z M1.4,24.5c-0.3-0.6-0.1-1.3,0.5-1.6
		c0.6-0.3,1.3-0.1,1.7,0.4c0.3,0.6,0.1,1.3-0.5,1.6C2.4,25.3,1.7,25.1,1.4,24.5z"/>
	<rect x="0.3" y="27.5" class="st3" width="4.3" height="7.2"/>
	<polygon class="st3" points="31.2,21.5 42.4,21.5 42.4,24.3 35.5,24.3 35.4,26.5 41.8,26.4 41.8,29.2 35.5,29.2 35.5,31.7 
		42.5,31.8 42.5,34.7 31.2,34.7 	"/>
	<polygon class="st3" points="47.5,34.7 47.5,21.5 53,21.5 55,29.6 57.2,21.5 62.6,21.5 62.6,34.7 59.2,34.7 59.2,24.4 56.6,34.7 
		53.5,34.7 50.9,24.8 50.9,34.7 	"/>
	<path class="st3" d="M20.5,25.8l3.9-0.8c0,0-0.3-1.9-2.2-3c-1.2-0.7-4.1-1.1-6.4-0.6c-1.3,0.3-3.8,0.9-4.7,5.1
		c-0.8,3.9,1.2,6.5,2.4,7.2c1.4,0.9,3.6,1.4,7,0.9c0.4-0.1,0.9-0.2,1.4-0.4c1.5-0.7,2.7-1.8,2.7-2.3c0-0.7,0-4.8,0-4.8h-6.4v2.6H21
		v1.2c0,0-1.2,1-3,0.9c-1.8-0.2-2.6-1.4-2.8-2.7c-0.2-1.3,0-4,1.3-4.6c1.2-0.6,2.5-0.6,3.3-0.1C20.5,25.2,20.5,25.8,20.5,25.8z"/>
	<path class="st3" d="M24.6,32.8v-1.4l-3.7,1.7l1.4,1c0,0,0.8-0.3,1.2-0.6C23.9,33.3,24.6,32.9,24.6,32.8z"/>
</g>
</svg>
